<svg width="46" height="61" viewBox="0 0 46 61" fill="none" xmlns="http://www.w3.org/2000/svg">
<path d="M20.6363 59.7693C3.23078 34.6736 0 32.098 0 22.875C0 10.2414 10.2974 0 23 0C35.7026 0 46 10.2414 46 22.875C46 32.098 42.7692 34.6736 25.3637 59.7693C24.2215 61.4103 21.7784 61.4102 20.6363 59.7693ZM23 32.4062C28.2928 32.4062 32.5833 28.139 32.5833 22.875C32.5833 17.611 28.2928 13.3438 23 13.3438C17.7072 13.3438 13.4167 17.611 13.4167 22.875C13.4167 28.139 17.7072 32.4062 23 32.4062Z" fill="#CBD7E4"/>
</svg>
